 <svg width="124" height="30" viewBox="0 0 124 30" xmlns="http://www.w3.org/2000/svg">
    <path
        d="M7.33082 4.8097C7.33082 12.501 0.868652 13.9403 0.868652 21.3329C0.868652 24.219 2.69289 26.7183 4.84613 27.0169C4.68899 26.4906 4.63743 26.0843 4.63743 25.5164C4.63743 20.18 13.2406 18.5252 13.2406 9.42397C13.2406 5.07163 10.1617 1.39245 6.5697 0.518555C6.5697 0.518555 7.32837 2.88077 7.32837 4.80725L7.33082 4.8097Z"
        fill="#E4002B"/>
    <path
        d="M6.78564 25.839C6.78564 27.3494 7.85858 28.9576 9.25806 29.4815C9.18441 29.2587 9.15003 29.0629 9.15003 28.7349C9.15003 25.7607 17.9741 24.8133 17.9741 17.0413C17.9741 14.8921 17.0731 12.5592 15.2881 11.0293C14.0801 19.8637 6.78564 21.0803 6.78564 25.839Z"
        fill="#489F45"/>
    <path
        d="M2.1606 2.98877C2.1606 2.98877 2.58536 3.75006 2.58536 4.59948C2.58536 7.32887 0 8.36923 0 11.1427C0 12.4523 0.714472 13.5269 1.72357 14.1511C1.75058 13.9137 1.77513 13.6909 1.83651 13.5049C2.4405 11.5784 5.27384 9.4463 5.27384 6.42316C5.27384 4.61172 3.76632 3.12096 2.1606 2.98877Z"
        fill="#33ADE1"/>
    <path
        d="M30.2317 18.8396C31.9037 20.3426 33.4898 21.2263 35.778 21.2263C37.0474 21.2263 39.3602 20.6927 39.3602 19.0281C39.3602 18.0661 38.6335 17.5789 37.2119 17.3391L33.2221 16.6928C29.6719 16.1322 27.7298 14.2523 27.7298 11.4347C27.7298 6.82293 31.474 4.91357 35.5669 4.91357C38.7439 4.91357 41.8695 6.20116 44.0202 8.5903L40.384 11.1924C39.1171 9.66248 37.2585 8.77389 35.2403 8.77389C34.1428 8.77389 32.5224 9.47154 32.5224 10.7077C32.5224 11.726 33.3596 12.2377 35.1863 12.5338L37.0228 12.8276C40.8432 13.4445 43.9957 14.6243 43.9957 18.2717C43.9957 24.0169 38.7955 25.094 35.2182 25.094C31.9626 25.094 28.9058 24.0438 26.291 21.2018L30.2317 18.8396ZM55.7832 25.0964C49.6673 25.0964 46.0875 20.3695 46.0875 14.9989C46.0875 9.638 49.6673 4.91357 55.7832 4.91357C61.8919 4.91357 65.4691 9.638 65.4691 14.9989C65.4691 20.3671 61.8894 25.0964 55.7832 25.0964ZM55.7832 8.93545C52.9794 8.93545 50.8826 10.7102 50.8826 14.9989C50.8826 17.7944 52.0145 21.0696 55.7832 21.0696C59.3335 21.0696 60.6814 17.9535 60.6814 14.9989C60.6814 11.9953 59.3335 8.93545 55.7832 8.93545ZM81.1409 11.8117C80.4657 10.037 78.8231 8.93301 77.1487 8.93301C74.5167 8.93301 72.4199 10.7126 72.4199 15.0013C72.4199 17.7944 73.5493 21.0696 77.3205 21.0696C78.612 21.0696 80.4976 20.1052 81.2489 18.3843L85.0447 20.2104C83.4021 23.1895 80.5492 25.094 77.3205 25.094C71.2046 25.094 67.6224 20.3695 67.6224 15.0013C67.6224 9.64044 70.9639 4.91602 76.94 4.91602C80.7063 4.91602 83.1812 6.7397 84.9612 9.90237L81.1409 11.8117ZM92.5037 5.45456H97.4559L104.699 24.5554H99.5526L98.5853 21.5519H91.5093L90.537 24.5554H85.4277L92.5037 5.45456ZM97.4264 18.0073L95.062 10.1202H95.0105L92.6387 18.0073H97.4264ZM106.599 5.45211H116.182C120.491 5.45211 123.133 7.43979 123.133 11.7285C123.133 14.2009 121.569 16.1812 119.17 16.8813L123.565 24.5554H118.203L114.434 17.6867H111.394V24.5554H106.599V5.45211ZM111.394 14.1372H115.782C117.316 14.1152 118.34 13.3417 118.34 11.5669C118.34 9.79221 117.316 9.01623 115.782 8.98931H111.394V14.1372Z"
        fill="#FFFFFE"/>
</svg>